<svg xmlns="http://www.w3.org/2000/svg" width="524" height="490" viewBox="0 0 524 490" fill="none"><path fill-rule="evenodd" clip-rule="evenodd" d="M36.9625 234.537C36.9625 234.537 14.7333 215.548 45.9194 149.983C77.1056 84.4186 140.263 98.7893 180.634 73.0003C240.282 34.8959 215.833 5.07634 290.21 0.269718C383.857 -5.78219 389.16 92.0171 436.013 92.0171C439.094 92.0171 512.053 62.7016 522.731 142.954C528.109 183.37 436.013 245.002 436.013 245.002C436.013 245.002 397.683 279.745 395.578 296.902C386.75 368.852 405.16 451.26 198.857 489.197C172.176 494.104 127.872 476.356 103.43 443.572C84.2811 417.887 7.46787 436.11 0.297561 351.669C-3.31642 309.108 36.9625 234.537 36.9625 234.537Z" fill="#FD5504"></path><path d="M174.571 177.491C175.267 177.08 176.164 177.312 176.574 178.007L178.23 180.801C184.805 191.832 187.435 195.415 190.23 197.034C192.528 198.365 194.903 197.952 199.251 195.402L199.832 195.053C202.567 193.349 215.081 184.753 219.919 181.666C220.6 181.232 221.504 181.431 221.939 182.113C222.373 182.794 222.173 183.698 221.492 184.132L220.748 184.612C215.356 188.107 203.244 196.425 201.1 197.707C195.836 200.855 192.423 201.562 189.002 199.699L188.764 199.565C185.089 197.436 182.231 193.352 174.055 179.494C173.644 178.798 173.875 177.901 174.571 177.491Z" fill="white"></path><path d="M198.259 194.398C199.06 194.291 199.796 194.853 199.903 195.654C200.401 199.375 201.594 203.106 203.489 206.851C203.853 207.572 203.564 208.452 202.844 208.816C202.123 209.181 201.243 208.892 200.878 208.171C198.84 204.141 197.546 200.097 197.003 196.042C196.896 195.241 197.458 194.505 198.259 194.398Z" fill="white"></path><path fill-rule="evenodd" clip-rule="evenodd" d="M368.664 283.737C368.428 284.334 367.91 285.161 367.31 285.943L367.828 286.48L368.428 287.119L368.561 287.247C368.619 287.299 368.665 287.33 368.698 287.339C368.892 287.367 369.027 287.546 369.001 287.741C368.973 287.932 368.795 288.07 368.601 288.042C368.425 288.038 367.787 287.789 367.026 287.171C366.888 287.059 366.751 286.93 366.612 286.789C366.173 287.278 365.73 287.699 365.347 287.96C364.783 288.349 364.295 288.38 364.062 288.222C363.833 288.069 363.613 287.554 363.986 286.513C364.044 286.324 364.245 286.225 364.431 286.284C364.617 286.343 364.719 286.541 364.661 286.729C364.604 286.922 364.596 287.099 364.596 287.24L364.812 287.093C364.888 287.038 364.967 286.977 365.039 286.904C365.3 286.647 365.592 286.334 365.885 285.996C365.421 285.456 364.947 284.823 364.565 284.092C364.378 283.735 364.229 283.357 364.088 282.959C363.99 282.737 364.091 282.476 364.314 282.377C364.537 282.279 364.798 282.381 364.895 282.603C365.321 283.496 365.866 284.266 366.403 284.925L366.582 285.14C367.072 284.499 367.493 283.851 367.683 283.357C367.789 283.088 368.094 282.954 368.364 283.057C368.636 283.164 368.77 283.468 368.664 283.737Z" fill="white"></path><path fill-rule="evenodd" clip-rule="evenodd" d="M151.022 99.2102L150.13 99.0488C145.152 98.1232 141.335 96.9869 134.204 94.5146C133.386 94.2311 132.953 93.3383 133.236 92.5205C133.52 91.7028 134.413 91.2697 135.23 91.5532L137.007 92.1648C143.263 94.2996 146.773 95.2783 151.566 96.1235C167.696 98.9675 179.772 90.6867 180.76 74.8937C180.814 74.0299 181.558 73.3734 182.422 73.4274C183.286 73.4815 183.943 74.2256 183.889 75.0894C182.777 92.8509 168.904 102.363 151.022 99.2102Z" fill="#00160A"></path><path fill-rule="evenodd" clip-rule="evenodd" d="M191.324 116.123L192.224 118.123L194.276 118.712C194.387 118.744 194.451 118.86 194.419 118.97C194.409 119.005 194.391 119.036 194.366 119.061L192.807 120.613L192.894 122.846C192.899 122.961 192.809 123.058 192.694 123.063C192.655 123.064 192.616 123.055 192.582 123.035L190.817 122.03C190.762 121.999 190.696 121.994 190.637 122.018L188.75 122.767C188.642 122.81 188.521 122.758 188.478 122.65C188.464 122.614 188.46 122.574 188.467 122.536L188.864 120.337L187.537 118.583C187.467 118.491 187.485 118.36 187.577 118.291C187.605 118.269 187.639 118.255 187.674 118.25L189.787 117.953L190.957 116.098C191.019 116 191.148 115.971 191.245 116.032C191.28 116.054 191.307 116.086 191.324 116.123Z" fill="#00160A"></path><path d="M397.475 65.8582C398.28 65.8008 398.98 66.4074 399.038 67.2131C399.095 68.0189 398.489 68.7187 397.683 68.7762C391.911 69.188 387.378 71.4247 385.364 76.9576C385.243 77.2906 385.142 77.6121 385.061 77.9176L385.006 78.1275L385.095 77.9432C387.63 72.7661 392.52 69.1689 398.187 68.256L398.558 68.2003C399.358 68.0886 400.097 68.6466 400.209 69.4467C400.321 70.2468 399.763 70.9859 398.963 71.0976C393.698 71.8324 389.195 75.3313 387.23 80.3497L387.103 80.6866C386.169 83.2515 383.928 84.4815 382.486 82.2864C381.606 80.9475 381.664 78.5697 382.615 75.957C385.027 69.33 390.562 66.3514 397.475 65.8582Z" fill="white"></path><path d="M390.812 54.9612C391.618 54.9037 392.318 55.5104 392.375 56.3161C392.433 57.1219 391.826 57.8217 391.02 57.8792C381.839 58.5342 373.788 64.4969 370.584 73.2982C369.635 75.9072 369.458 78.1378 369.798 79.2675L369.84 79.3936L369.904 79.3003C370.068 79.0525 370.252 78.6967 370.432 78.2354L370.509 78.0312C373.893 68.7346 382.097 62.224 391.719 60.8809C392.519 60.7692 393.258 61.3273 393.37 62.1273C393.481 62.9274 392.923 63.6665 392.123 63.7782C383.706 64.9532 376.511 70.5709 373.412 78.6203L373.258 79.0317C372.003 82.4791 369.29 83.9685 367.555 81.3287C366.366 79.5197 366.45 76.1049 367.835 72.2976C371.437 62.4022 380.49 55.6977 390.812 54.9612Z" fill="white"></path><path d="M381.833 40.4318C382.639 40.3743 383.339 40.9809 383.396 41.7867C383.454 42.5924 382.847 43.2922 382.042 43.3497C368.946 44.284 357.463 52.7885 352.894 65.3417C351.339 69.6138 351.21 73.2347 352.059 74.7398L352.136 74.867C352.262 75.0584 352.22 75.064 352.252 75.0376L352.271 75.0248C352.702 74.7887 353.27 73.9841 353.789 72.6497L353.892 72.3757C358.559 59.5543 369.873 50.5755 383.144 48.7231C383.944 48.6114 384.683 49.1694 384.794 49.9695C384.906 50.7696 384.348 51.5087 383.548 51.6204C371.498 53.3024 361.204 61.369 356.811 72.9186L356.641 73.3763C355.017 77.8367 351.761 79.6237 349.691 76.4735C348.148 74.1249 348.26 69.5197 350.145 64.3411C355.112 50.6939 367.597 41.4474 381.833 40.4318Z" fill="white"></path><path d="M365.806 26.7768C366.598 26.6215 367.367 27.1383 367.522 27.9311C367.677 28.7238 367.161 29.4923 366.368 29.6476C354.513 31.9693 344.979 41.0242 342.214 53.0013C341.278 57.0548 341.561 60.3507 342.479 61.6081L342.601 61.7658L342.611 61.7877L342.628 61.7745C342.957 61.4777 343.341 60.7196 343.639 59.5443L343.702 59.2861C346.546 46.968 355.937 37.433 367.932 34.2309C368.713 34.0225 369.514 34.4863 369.723 35.2668C369.931 36.0473 369.467 36.8489 368.687 37.0573C357.88 39.9422 349.389 48.4506 346.664 59.4768L346.552 59.9442C345.549 64.2886 342.669 66.3625 340.337 63.6124C338.63 61.601 338.211 57.333 339.363 52.3432C342.39 39.2316 352.828 29.3183 365.806 26.7768Z" fill="white"></path><path d="M203.664 207.173L204.508 206.866C212.489 204.002 219.222 202.739 220.932 204.479C222.432 206.005 223.769 208.769 225.036 212.823C225.277 213.594 224.848 214.414 224.077 214.655C223.306 214.896 222.485 214.466 222.244 213.695C221.148 210.19 220.03 207.83 218.973 206.664L218.929 206.618L218.891 206.62C218.691 206.579 218.391 206.558 218.008 206.566C217.166 206.582 216.013 206.731 214.637 207.003C211.807 207.564 208.229 208.607 204.676 209.918C198.735 212.109 193.787 214.684 191.053 217.01C190.049 217.864 188.216 215.485 189.98 214.123C193.153 211.671 197.965 209.275 203.664 207.173Z" fill="white"></path><path d="M199.647 179.541C199.647 184.42 204.806 189.702 205.904 190.003C206.683 190.216 193.259 198.963 193.259 198.963C188.409 199.601 185.561 195.501 185.561 189.393C185.561 188.586 199.647 178.733 199.647 179.541Z" fill="white"></path><path fill-rule="evenodd" clip-rule="evenodd" d="M183.819 182.105C185.518 181.775 186.672 180.359 186.397 178.943C186.122 177.527 184.521 176.647 182.822 176.977C181.123 177.307 179.968 178.723 180.244 180.139C180.519 181.555 182.12 182.435 183.819 182.105Z" fill="#221F1F"></path><path d="M356.958 18.6657C357.754 18.5271 358.511 19.0599 358.65 19.8557C358.789 20.6515 358.256 21.4091 357.46 21.5477C353.675 22.207 349.858 24.498 345.923 28.1421C340.812 32.874 337.437 39.4123 335.576 48.13C334.077 55.1536 335.461 63.9299 339.38 71.645C343.839 80.4226 351.727 82.592 360.924 84.2719C370.366 85.9964 372.975 84.9314 381.896 81.7597L382.718 81.4614C383.937 80.9995 389.638 78.7689 391.009 78.3544C393.893 77.4821 395.86 77.5551 397.287 79.0755C397.84 79.6645 397.811 80.5902 397.222 81.143C396.669 81.6612 395.821 81.6678 395.262 81.1812L395.154 81.0773C394.733 80.6288 393.863 80.5768 392.112 81.079L391.855 81.1545C390.537 81.5532 384.355 83.9797 383.554 84.2719C373.918 87.7894 370.65 89.022 360.398 87.1496C350.24 85.2942 341.621 82.5165 336.772 72.9699C332.557 64.6732 331.072 55.2171 332.715 47.5193C334.702 38.2151 338.38 31.1394 343.935 25.9956C348.284 21.9691 352.616 19.422 356.958 18.6657Z" fill="white"></path><path d="M425.767 135.052C417.429 134.626 410.862 141.066 410.794 149.711C410.736 156.995 414.838 162.993 420.474 164.155C422.753 164.624 427.129 164.059 430.374 162.239C435.303 159.596 439.07 154.163 439.545 149.533C440.319 141.99 434.213 135.484 425.767 135.052Z" fill="white"></path><path d="M274.668 133.529C277.331 138.908 281.467 151.334 279.678 151.274C274.709 151.108 268.062 143.471 263.411 133.146L263.045 132.315C258.984 122.94 256.553 117.05 259.376 115.922C262.297 114.755 269.171 122.426 274.668 133.529Z" fill="white"></path><path fill-rule="evenodd" clip-rule="evenodd" d="M259.377 115.805C262.297 114.638 269.272 121.959 274.77 133.061C277.433 138.441 279.24 143.601 279.712 147.302C279.712 147.302 270.717 128.349 265.23 121.407C263.123 118.74 259.377 115.805 259.377 115.805Z" fill="#E7EAEE"></path><path d="M257.844 163.537C258.059 162.758 258.864 162.3 259.643 162.515C260.421 162.729 260.879 163.534 260.665 164.313C260.389 165.315 256.515 167.943 248.061 173.154L242.725 176.419C232.191 182.832 225.163 186.936 224.284 186.936C218.468 186.936 213.227 181.449 209.4 172.792C206.059 165.233 204.325 156.235 205.108 150.338C205.353 148.498 211.484 143.734 220.952 137.351L222.308 136.442C230.683 130.863 237.842 126.724 240.433 126.202C241.224 126.042 241.996 126.554 242.156 127.346C242.256 127.842 219.169 147.302 216.914 160.218C215.387 168.963 221.159 183.869 224.025 184.004L224.284 184.01C224.051 184.01 224.125 183.956 224.153 183.94L224.417 183.804C224.611 183.703 224.841 183.578 225.107 183.432L226.324 182.751C226.79 182.488 227.309 182.19 227.876 181.863L229.328 181.019C232.099 179.401 235.557 177.341 239.085 175.207L242.439 173.167C246.519 170.675 250.204 168.377 252.974 166.592L254.401 165.665C255.285 165.085 256.032 164.584 256.629 164.168L256.846 164.016C257.175 163.784 257.448 163.584 257.662 163.42C257.662 163.42 257.903 163.325 257.844 163.537Z" fill="white"></path><path fill-rule="evenodd" clip-rule="evenodd" d="M260.744 134.347C257.21 126.499 255.648 119.307 256.832 114.952C254.693 115.632 252.019 116.853 249.365 118.376C245.838 120.4 243.038 122.662 242.973 123.153C242.291 128.286 244.908 138.273 249.257 147.176C253.909 156.699 259.444 162.816 263.728 162.816C264.138 162.816 265.312 162.574 266.489 162.163C268.162 161.579 269.73 160.727 271.015 159.611C271.654 159.056 272.315 158.429 273.005 157.729L273.837 156.869C274.328 156.35 274.834 155.791 275.624 154.906L276.725 153.677L276.773 153.625C271.261 151.611 265.497 144.512 261.185 135.306L260.744 134.347ZM240.073 122.768C240.528 119.343 253.349 111.941 259.2 111.463C259.444 111.309 259.706 111.176 259.985 111.065C265.052 109.04 272.773 117.713 278.966 129.916L279.391 130.763C282.186 136.409 284.094 141.857 284.613 145.932C285.234 150.801 283.824 154.03 280.127 154.195C280.028 154.579 279.778 154.9 279.446 155.093L279.389 155.122L279.244 155.266C279.099 155.415 278.929 155.6 278.665 155.893L276.848 157.922C276.188 158.648 275.721 159.141 275.088 159.783C274.348 160.534 273.633 161.211 272.933 161.819C270.102 164.279 265.915 165.742 263.728 165.742C262.568 165.742 261.395 165.472 260.22 164.957C258.964 166.267 255.1 168.815 248.062 173.154L242.726 176.419C232.192 182.832 225.163 186.936 224.284 186.936C222.292 186.936 220.368 186.292 218.544 185.098C218.528 185.11 218.51 185.121 218.493 185.132L217.748 185.612C215.157 187.291 211.013 190.086 207.17 192.677L206.929 192.839C207.426 196.391 208.557 199.953 210.327 203.527C216.609 201.584 221.585 200.928 223.021 202.389C224.521 203.915 225.858 206.679 227.125 210.733C227.366 211.504 226.937 212.325 226.166 212.566C225.395 212.807 224.574 212.377 224.333 211.606C223.237 208.1 222.119 205.741 221.062 204.574L221.018 204.528L220.98 204.53C220.78 204.49 220.48 204.469 220.097 204.476C219.255 204.493 218.102 204.641 216.726 204.914C213.896 205.475 210.318 206.518 206.765 207.828C198.643 210.824 192.375 214.537 191.087 217.35C190.71 218.173 190.758 219.379 191.209 221.224L191.293 221.556C191.36 221.818 191.431 222.077 191.523 222.405L192.052 224.274L192.078 224.374L192.123 224.545C192.326 225.327 191.856 226.125 191.074 226.328C190.292 226.531 189.494 226.062 189.291 225.28L189.031 224.334L188.599 222.807C188.549 222.626 188.505 222.46 188.461 222.29C187.776 219.648 187.665 217.796 188.427 216.132C189.719 213.312 193.759 210.39 199.384 207.734L198.161 204.573L197.858 203.774C197.395 202.528 196.856 200.838 196.525 199.605C192.13 201.974 189.07 202.37 186.003 200.699L185.764 200.565C185.158 200.214 184.574 199.809 183.984 199.316L166.841 209.729C167 210.072 167.161 210.418 167.324 210.767C168.093 212.417 166.736 213.585 164.656 214.493L164.431 214.589C162.643 215.33 161.029 215.5 160.068 214.445C156.081 210.069 151.861 199.603 154.132 197.209C154.568 196.749 155.719 196.065 157.895 194.923L158.068 194.833C158.113 194.803 158.159 194.774 158.208 194.747L174.233 186.065C174.27 186.046 174.307 186.027 174.344 186.011C173.355 184.375 172.27 182.552 171.07 180.52C170.888 180.224 170.82 179.879 170.866 179.548C170.896 179.337 170.971 179.132 171.092 178.949C171.158 178.847 171.237 178.753 171.329 178.669C174.624 175.545 179.113 172.287 184.744 168.779L185.427 168.356C187.865 166.853 192.808 164.034 197.007 161.639L197.008 161.639L197.01 161.637C200.266 159.78 203.075 158.178 203.921 157.643L204.126 157.507C204.432 157.283 204.796 157.196 205.145 157.233C204.867 154.696 204.843 152.339 205.108 150.338C205.353 148.498 211.484 143.734 220.952 137.351L222.308 136.442C230.243 131.156 237.086 127.164 239.987 126.314C239.909 125.004 239.934 123.811 240.073 122.768ZM240.307 129.28C237.466 130.319 230.351 134.543 222.587 139.777L221.344 140.62C217.85 143.004 214.622 145.328 212.184 147.223L211.507 147.754C210.419 148.616 209.539 149.359 208.9 149.955C208.58 150.254 208.328 150.509 208.15 150.713L208.025 150.86C207.998 150.888 207.991 150.877 208.001 150.785L208.008 150.724C208.005 150.747 208.003 150.768 208.001 150.785L207.962 151.099C206.556 163.443 215.481 183.602 224.025 184.004L224.226 184.009C224.243 184.01 224.262 184.01 224.284 184.01L224.226 184.009C224.065 184 224.128 183.954 224.153 183.94L224.417 183.804C224.611 183.703 224.842 183.578 225.107 183.432L226.324 182.751C226.79 182.488 227.309 182.19 227.876 181.863L229.328 181.019C232.1 179.401 235.558 177.341 239.085 175.207L242.44 173.167C246.519 170.675 250.205 168.377 252.975 166.592L254.402 165.665C255.285 165.085 256.032 164.584 256.629 164.168L256.846 164.016C257.162 163.793 257.427 163.6 257.637 163.44C253.869 160.675 250.159 155.569 246.866 148.941L246.629 148.46C243.455 141.962 241.159 134.926 240.307 129.28ZM205.549 160.069C204.493 160.734 201.38 162.511 197.916 164.489L197.916 164.489L197.915 164.49L197.913 164.491L197.909 164.493C193.806 166.836 189.212 169.459 186.962 170.846C181.646 174.124 177.359 177.162 174.176 180.023L175.231 181.801C179.843 189.54 182.515 193.613 184.663 195.914C183.949 194.221 183.58 192.072 183.58 189.378C183.58 189.253 183.595 189.133 183.624 189.018C183.482 188.458 183.682 187.842 184.177 187.479L185.173 186.739C185.768 186.289 186.744 185.543 187.855 184.693L187.864 184.687L187.871 184.682L187.872 184.681C190.318 182.812 193.409 180.45 194.512 179.66C197.981 177.175 200.537 175.781 202.865 175.297C203.977 175.065 204.841 175.723 205.092 176.742L205.133 176.928C205.191 177.231 205.202 177.529 205.2 178.18L205.2 178.387C205.188 180.821 205.429 182.225 206.46 183.848C207.165 184.958 208.202 185.971 209.646 186.878C209.797 186.973 209.925 187.091 210.027 187.225C212.357 185.66 214.54 184.205 216.149 183.162C213.613 180.706 211.327 177.151 209.401 172.792C207.606 168.731 206.275 164.256 205.549 160.069ZM281.711 146.302C281.239 142.601 279.433 137.441 276.769 132.061C271.272 120.959 263.991 112.614 261.071 113.781C258.248 114.909 258.985 122.94 263.045 132.315L263.412 133.146C268.062 143.471 274.71 151.108 279.679 151.274C281.468 151.334 282.167 149.873 281.711 146.302ZM175.856 188.484C178.393 192.587 180.247 195.297 181.862 197.182L165.611 207.053C163.946 203.404 162.457 200.007 161.012 196.556L175.626 188.638C175.709 188.593 175.786 188.541 175.856 188.484ZM207.522 204.45C205.945 201.188 204.855 197.918 204.257 194.64C202.157 196.053 200.329 197.277 199.154 198.04C199.356 199.049 200.104 201.444 200.748 203.147L201.948 206.237L202.062 206.539C203.242 206.041 204.475 205.555 205.753 205.084L206.597 204.777C206.907 204.665 207.216 204.556 207.522 204.45ZM207.469 188.946C205.971 187.908 204.823 186.726 203.99 185.416C202.644 183.296 202.29 181.486 202.274 178.751L202.274 178.506L202.067 178.584C200.584 179.159 198.814 180.201 196.59 181.771L196.215 182.038C195.157 182.796 192.143 185.099 189.713 186.956C188.362 187.989 187.19 188.884 186.636 189.299L186.505 189.395C186.508 194.262 187.723 196.495 189.982 197.578L190.162 197.661C190.701 197.899 191.085 198.019 192.183 198.32C192.205 198.326 192.226 198.332 192.248 198.339C193.387 197.956 194.692 197.316 196.252 196.402L196.833 196.053C198.12 195.251 201.577 192.92 205.379 190.355C206.068 189.891 206.768 189.419 207.469 188.946ZM158.426 197.955L158.651 198.488C160.204 202.172 161.818 205.82 163.651 209.798L164.363 211.342C164.13 211.499 163.822 211.665 163.485 211.813C163 212.024 162.508 212.173 162.137 212.223L162.019 212.235L161.841 212.021C160.457 210.317 158.85 207.42 157.688 204.54C157.07 203.006 156.629 201.599 156.431 200.518C156.35 200.077 156.312 199.707 156.316 199.426L156.324 199.241C156.327 199.197 156.327 199.173 156.316 199.17L156.36 199.14C156.607 198.97 157.239 198.6 158.177 198.09L158.426 197.955ZM178.603 194.732C178.038 194.156 177.112 194.147 176.535 194.712C175.521 195.707 174.099 196.634 171.616 198.012L169.09 199.415C168.422 199.795 167.876 200.123 167.381 200.444C166.967 200.712 166.597 200.971 166.265 201.228C165.626 201.722 165.508 202.64 166.002 203.28C166.496 203.919 167.415 204.037 168.054 203.543C168.318 203.339 168.623 203.125 168.973 202.898C169.296 202.688 169.651 202.471 170.062 202.231L170.867 201.77L173.434 200.348C175.9 198.964 177.386 197.976 178.584 196.801C179.16 196.235 179.169 195.309 178.603 194.732Z" fill="#00160A"></path><path d="M145.885 343.27C153.199 384.051 180.614 414.709 215.597 421.937C222.018 423.264 233.137 423.438 244.652 421.948C259.487 420.028 273.924 415.624 286.622 408.486C321.502 389.739 347.97 351.479 351.401 317.987C354.414 288.567 343.175 261.389 322.828 242C322.828 242 258.913 273.393 227.538 291.237C200.236 306.764 145.885 343.27 145.885 343.27Z" fill="white"></path><path d="M294.735 221.658C281.625 215.19 265.199 210.08 249.093 209.257C190.02 206.236 143.561 253.427 143.076 314.295C143.076 314.295 209.007 272.3 243.26 252.038C260.301 241.958 294.735 221.658 294.735 221.658Z" fill="white"></path><path fill-rule="evenodd" clip-rule="evenodd" d="M416.24 190.637C416.041 200.807 405.28 217.733 387.981 236.887C375.45 250.762 360.869 264.174 348.643 273.212L347.882 273.769L348.387 276.015C351.36 289.045 355.241 303.21 353.775 317.495C350.216 352.166 323.097 391.281 287.26 410.5C274.19 417.832 259.333 422.354 244.093 424.322L242.64 424.502C231.277 425.84 220.403 425.618 213.758 424.248C187.965 418.93 166.128 400.9 152.926 374.806C152.882 374.718 152.847 374.628 152.821 374.537C151.083 375.528 148.745 376.636 147.677 376.999L144.751 377.987C113.219 388.593 81.9579 397.466 69.1874 391.928C64.3259 389.82 62.6642 385.766 64.6973 380.318C66.6732 375.025 72.1517 368.203 81.3432 359.714L81.8483 359.249C90.5579 351.265 109.9 336.676 139.873 315.481L139.881 315.092C141.344 252.291 190.126 204.415 251.444 208.323C270.199 209.518 285.135 216.183 292.595 220.276L295.876 218.515C326.646 202.062 351.335 190.497 370.172 183.575C401.151 172.191 416.471 177.514 416.24 190.637ZM371.181 190.321C336.541 203.05 281.797 231.679 205.575 277.73L203.259 279.131C143.908 315.06 104.606 342.356 83.825 361.406L82.8008 362.351L81.8297 363.262C66.2297 378.001 63.4646 386.258 70.3513 389.245C82.1403 394.357 113.799 385.738 144.803 375.569L147.677 374.621C150.442 373.705 152.275 373.179 153.41 372.937C153.46 372.901 153.514 372.869 153.571 372.84C153.959 372.644 154.393 372.637 154.768 372.784C154.849 372.8 154.902 372.825 154.929 372.86C155.182 372.997 155.397 373.209 155.536 373.485C168.353 398.817 189.472 414.254 214.349 419.383C220.806 420.714 231.701 420.909 243.038 419.507L243.718 419.421C258.607 417.498 273.108 415.084 285.853 407.935C320.873 389.154 347.407 350.883 350.865 317.196C352.343 302.799 350.457 288.667 345.443 275.514C345.029 275.804 344.618 276.087 344.211 276.365C343.441 276.89 343.728 276.04 345.073 273.814C345.144 273.524 345.304 273.26 345.534 273.061L345.948 272.405C346.094 272.177 346.246 271.939 346.406 271.691L348.14 270.229C364.479 256.409 377.036 244.642 385.81 234.926L386.812 233.811C403.046 215.644 413.138 199.597 413.304 190.583C413.487 180.695 400.441 179.569 371.181 190.321ZM224.302 375.301C228.227 387.296 222.29 395.011 211.839 395.41C202.182 395.778 193.388 389.693 193.836 381.046C194.224 373.573 199.341 365.584 205.64 362.65C213.259 359.102 220.41 363.406 224.302 375.301ZM207.184 365.965C202.143 368.312 197.807 375.082 197.488 381.236C197.17 387.364 203.945 392.052 211.699 391.756C219.806 391.446 223.968 386.039 220.827 376.438C217.557 366.443 212.584 363.45 207.184 365.965ZM304.096 350.859C309.104 360.321 307.793 369.617 300.093 373.784L299.877 373.897L299.765 374.009C289.439 384.233 276.54 385.474 268.128 378.063L267.84 377.804C258.15 368.928 260.459 353.678 275.877 341.723C285.8 334.03 297.92 339.189 304.096 350.859ZM277.798 344.2C263.8 355.053 261.833 368.05 269.957 375.493C275.784 380.83 284.394 381.126 292.435 375.945L292.592 375.84L292.533 375.828C291.976 375.681 291.53 375.232 291.403 374.647L291.378 374.498C291.276 373.638 291.89 372.859 292.75 372.757C294.716 372.524 296.422 372.049 297.869 371.37L298.066 371.274L298.306 371.026C299.25 370.032 300.171 368.952 301.064 367.783L301.36 367.39C301.695 366.941 302.225 366.723 302.745 366.765L302.785 366.77L302.806 366.731C304.683 363.02 304.238 357.992 301.49 352.64L301.326 352.325C295.955 342.177 285.918 337.905 277.798 344.2ZM371.007 231.725C370.202 234.586 367.75 238.514 363.993 243.164C357.442 251.271 347.601 260.708 338.999 267.16L340.907 265.062C340.888 265.045 340.872 265.022 340.858 264.997L340.2 263.787C335.895 255.93 331.1 248.18 323.35 241.862C303.288 250.133 280.286 261.44 259.329 273.262L252.46 277.144C201.875 305.799 175.261 322.955 146.801 344.044C147.875 348.881 149.229 353.602 150.85 358.176C151.104 358.894 147.781 361.58 147.172 361.249C141.495 365.053 132.604 367.816 127.543 367.959C122.61 368.099 119.76 366.102 121.228 362.121C122.457 358.79 127.083 354.04 135.409 347.673L136.358 346.953L138.277 345.511C169.612 322.052 200.633 303.014 257.892 270.714L260.289 269.369C299.56 247.447 345.038 227.698 365.868 225.876C370.15 225.501 372.092 227.871 371.007 231.725ZM142.991 346.882L136.425 351.836C130.569 356.277 126.346 359.561 124.065 361.668L123.898 361.824C121.114 364.435 124.265 365.126 127.46 365.035C132.299 364.898 139.713 361.228 145.988 357.888C144.828 354.295 143.828 350.622 142.991 346.882ZM245.684 331C246.467 331.199 246.941 331.994 246.742 332.777C246.543 333.56 245.747 334.034 244.964 333.835C241.031 332.837 238.707 333.22 237.954 334.279C237.454 334.982 237.731 336.18 238.666 336.945C239.397 337.543 240.37 337.829 241.039 337.683C241.621 337.556 241.947 337.107 241.947 335.984C241.947 335.176 242.602 334.521 243.41 334.521C244.218 334.521 244.873 335.176 244.873 335.984C244.873 338.427 243.651 340.108 241.661 340.541C240.062 340.889 238.198 340.342 236.814 339.209C234.769 337.537 234.101 334.648 235.57 332.583C237.181 330.319 240.711 329.737 245.684 331ZM181.432 325.63C183.688 326.306 184.66 328.038 184.966 330.637L184.997 330.918L185.034 331.346C185.039 331.417 185.044 331.49 185.049 331.569L185.126 333.053L185.149 333.388C185.161 333.535 185.174 333.655 185.189 333.762L185.228 333.986L185.251 334.084L185.292 334.12C185.744 334.562 185.864 335.255 185.572 335.828L185.497 335.957C185.059 336.636 184.154 336.832 183.475 336.394C182.541 335.791 182.328 335.171 182.215 333.392L182.122 331.651C182.112 331.493 182.1 331.357 182.085 331.203C181.919 329.499 181.503 328.705 180.593 328.432C178.038 327.667 176.572 328.449 176.107 330.156C175.694 331.678 176.292 333.277 177.341 333.721L177.606 333.82C178.291 334.113 178.654 334.884 178.423 335.609C178.178 336.378 177.355 336.803 176.585 336.558C173.8 335.67 172.476 332.361 173.284 329.389C174.186 326.071 177.323 324.399 181.432 325.63ZM286.961 303.233C291.011 308.927 290.258 316.173 283.76 319.452C283.038 319.815 282.159 319.526 281.795 318.805C281.431 318.083 281.721 317.204 282.442 316.84C287.147 314.466 287.684 309.297 284.577 304.928C281.558 300.685 277.357 300.218 274.469 304.803C271.408 309.665 271.63 312.519 273.834 313.804C275.584 314.824 278.401 314.61 279.176 313.776L279.251 313.684C279.719 313.026 280.633 312.872 281.291 313.341C281.949 313.809 282.103 314.722 281.634 315.38C280.008 317.665 275.368 318.084 272.361 316.331C268.511 314.086 268.143 309.36 271.994 303.245C276.117 296.696 282.843 297.443 286.961 303.233ZM226.317 294.846C227.077 294.846 227.702 295.426 227.773 296.167L227.78 296.308C227.78 296.566 228.019 296.854 228.877 297.483L229.69 298.066C230.575 298.712 231.002 299.112 231.405 299.75C232.328 301.208 232.85 302.693 232.85 304.439C232.85 308.909 226.135 314.989 218.805 317.695C210.017 320.938 202.818 318.533 200.859 309.516C200.687 308.726 201.188 307.948 201.977 307.776C202.767 307.604 203.546 308.105 203.717 308.895C205.238 315.893 210.487 317.646 217.792 314.95C224.099 312.622 229.925 307.348 229.925 304.439C229.925 303.314 229.583 302.341 228.933 301.314L228.845 301.19C228.696 301.002 228.463 300.798 228.044 300.488L227.079 299.792C225.475 298.61 224.854 297.812 224.854 296.308C224.854 295.501 225.509 294.846 226.317 294.846ZM233.183 213.773L232.259 213.877C182.347 219.88 144.903 259.801 142.861 313.372L148.217 309.604C163.588 298.814 181.431 286.489 201.744 272.629L205.702 270.236C217.519 263.107 228.817 256.398 239.603 250.104C239.406 249.759 239.351 249.335 239.484 248.928C240.238 246.626 240.935 245.079 242.212 243.53C246.209 238.682 251.684 236.314 255.563 239.358C255.945 239.658 256.138 240.109 256.122 240.56L259.568 238.594C270.419 232.417 280.686 226.712 290.377 221.472L286.592 220.395C280.979 218.815 273.996 216.941 267.04 215.499C267.103 220.127 263.639 223.824 257.882 226.366C252.989 228.527 246.613 229.69 242.079 229.42C233.597 228.914 228.822 221.474 233.183 213.773ZM320.738 277.295C324.318 287.075 321.364 295.967 312.427 295.909C299.693 295.826 287.258 284.707 289.268 274.747C290.165 270.303 293.505 266.372 299.314 264.41C308.591 261.278 317.095 267.34 320.738 277.295ZM300.25 267.182C295.45 268.803 292.83 271.886 292.136 275.325C290.54 283.231 301.367 292.912 312.446 292.984C318.793 293.025 320.975 286.453 317.991 278.301C314.834 269.674 307.775 264.641 300.25 267.182ZM192.695 232.555L192.8 232.706L193.504 233.826C193.848 234.394 194.157 234.952 194.451 235.553C197.691 242.176 197.607 250.859 192.125 262.912C189.641 268.372 183.314 275.711 177.789 280.089C170.734 285.681 165.467 286.951 159.18 286.261L157.314 286.041L157.087 286.021C156.962 286.011 156.882 286.011 156.795 286.014L156.667 286.019C156.569 286.024 156.536 286.019 156.53 286.006L156.53 285.996L156.483 286.072C156.059 286.68 155.234 286.88 154.573 286.512C153.867 286.119 153.613 285.229 154.005 284.523C154.531 283.578 155.41 283.15 156.528 283.097C156.824 283.083 157.138 283.093 157.511 283.124L157.947 283.166L159.153 283.313C164.88 284.007 169.437 282.977 175.972 277.797C181.162 273.684 187.194 266.688 189.462 261.701C194.592 250.422 194.667 242.653 191.823 236.838C191.634 236.451 191.437 236.083 191.222 235.714L190.916 235.202L190.303 234.232C189.874 233.548 190.081 232.645 190.765 232.216C191.407 231.813 192.24 231.97 192.695 232.555ZM366.123 228.79C356.772 229.608 342.114 234.227 325.215 241.098L325.709 241.535C330.412 245.754 339.9 255.76 342.87 262.897L345.829 259.616C353.128 251.497 358.425 245.4 361.717 241.325L362.384 240.49C365.531 236.496 367.565 233.159 368.191 230.932L368.28 230.594C368.671 228.987 368.219 228.607 366.123 228.79ZM226.067 233.542C229.707 235.302 231.184 239.22 228.789 242.772C228.338 243.442 227.429 243.619 226.759 243.168C226.089 242.716 225.912 241.807 226.364 241.137C227.681 239.183 226.938 237.212 224.793 236.175C222.535 235.083 220.06 235.711 218.783 238.095C217.606 240.292 217.525 243.266 218.465 245.213C219.289 246.923 220.49 247.251 222.322 245.872C222.967 245.386 223.884 245.515 224.37 246.161C224.856 246.806 224.727 247.723 224.081 248.209C220.743 250.722 217.439 249.82 215.83 246.484C214.481 243.688 214.588 239.729 216.204 236.714C218.265 232.867 222.466 231.801 226.067 233.542ZM244.47 245.391C243.788 246.218 243.3 247.091 242.849 248.212C246.618 246.022 250.323 243.882 253.965 241.794L253.859 241.732L253.757 241.659C251.524 239.907 247.587 241.609 244.47 245.391ZM238.232 213.326L236.953 213.416L236.867 213.524C231.811 219.914 233.758 225.101 240.663 225.837C245.623 226.366 258.788 222.687 260.332 221.395C261.836 220.138 263.739 217.245 264.032 214.902C259.564 214.061 255.193 213.444 251.294 213.244C247.31 213.041 243.381 213.046 239.517 213.25L238.232 213.326Z" fill="#00160A"></path><path d="M370.295 190.683C401.274 179.3 400.564 182.677 371.304 193.429C336.664 206.159 205.907 285.919 205.907 285.919C146.555 321.848 142.115 316.302 199.643 281.34L203.189 279.189C203.857 278.785 269.353 237.448 316.154 215.333C321.42 212.844 366.768 191.98 370.295 190.683Z" fill="white"></path><path fill-rule="evenodd" clip-rule="evenodd" d="M423.784 134.01C414.185 133.519 406.692 140.979 406.614 150.739C406.549 158.917 411.24 165.86 417.962 167.246C419.733 167.611 424.841 167.611 429.272 165.125L429.639 164.923C435.225 161.76 439.025 155.742 439.533 150.791C440.434 142.014 433.383 134.501 423.784 134.01ZM408.703 150.756C408.704 150.693 408.705 150.63 408.706 150.567C408.766 150.548 408.825 150.523 408.882 150.492C416.408 146.438 421.054 143.348 422.909 141.117C424.134 139.644 424.731 137.983 424.683 136.178C425.946 136.318 427.151 136.595 428.28 136.992C428.274 137.046 428.271 137.102 428.273 137.158C428.365 139.756 427.672 141.832 426.2 143.449C424.508 145.307 422.458 147.076 420.128 148.743C417.637 150.526 414.961 152.1 412.286 153.448C411.662 153.763 411.068 154.049 410.51 154.308L409.703 154.674C409.587 154.725 409.48 154.772 409.381 154.815L409.141 154.916C408.845 153.599 408.692 152.203 408.703 150.756ZM409.728 156.936C410.39 158.771 411.348 160.397 412.534 161.721L413.159 161.362C422.98 155.676 429.077 151.209 431.385 148.058C433.718 144.872 434.55 142.426 434.028 140.762C434.016 140.723 434.006 140.684 433.998 140.644C432.97 139.565 431.747 138.638 430.367 137.905C430.309 140.667 429.436 142.999 427.745 144.856C425.946 146.832 423.787 148.694 421.344 150.443C418.757 152.294 415.992 153.921 413.226 155.314C412.419 155.721 411.66 156.083 410.961 156.4L410.147 156.761L409.728 156.936ZM417.55 164.989C416.316 164.62 415.166 164.015 414.132 163.213C424.242 157.366 430.533 152.758 433.071 149.293C434.645 147.143 435.651 145.21 436.06 143.485C436.569 144.435 436.954 145.448 437.201 146.505C437.148 146.613 437.113 146.732 437.1 146.858C436.845 149.301 435.586 151.725 433.284 154.14C431.075 156.457 426.307 159.8 419.021 164.123L417.55 164.989ZM421.082 165.327C423.325 165.185 426.068 164.527 428.284 163.284C432.407 161.073 435.717 156.91 436.967 152.898C436.363 153.804 435.639 154.698 434.796 155.582C432.528 157.961 427.968 161.196 421.082 165.327ZM409.311 147.88L408.939 148.082C410.125 141.178 415.641 136.223 422.588 136.08C422.661 137.437 422.24 138.654 421.302 139.781C419.787 141.604 415.766 144.332 409.311 147.88Z" fill="#00160A"></path><path fill-rule="evenodd" clip-rule="evenodd" d="M499.212 113.99C499.407 114.012 499.543 114.188 499.521 114.382C499.52 114.667 499.336 114.821 499.089 114.921C498.867 115.011 498.512 114.976 498.305 115.004C496.042 115.179 494.264 113.514 493.482 111.368C492.73 109.307 492.93 106.842 494.295 105.322C494.452 105.143 494.724 105.125 494.903 105.282C495.082 105.439 496.1 105.712 495.943 105.891C494.818 107.204 494.057 108.001 495.118 111.118C496.179 114.235 499.067 113.973 499.212 113.99Z" fill="#E7EAEE"></path><path fill-rule="evenodd" clip-rule="evenodd" d="M138.956 136.306C138.361 135.898 137.548 136.049 137.14 136.644C136.732 137.238 136.883 138.051 137.477 138.46C138.131 138.908 138.708 139.322 139.217 139.707C138.669 140.143 138.121 140.644 137.551 141.213L136.396 142.386C135.888 142.898 135.892 143.725 136.404 144.233C136.916 144.741 137.743 144.737 138.251 144.225L139.637 142.824C140.201 142.275 140.729 141.816 141.261 141.434C142.442 142.604 142.801 143.463 142.821 144.316L142.821 144.535L142.827 144.669C142.894 145.327 143.45 145.841 144.127 145.841C144.848 145.841 145.433 145.256 145.433 144.535L145.432 144.278C145.408 142.948 144.939 141.683 143.675 140.237C144.509 139.988 145.45 139.849 146.591 139.789C147.311 139.751 147.865 139.137 147.827 138.417C147.79 137.696 147.175 137.143 146.455 137.181C144.474 137.284 142.935 137.614 141.564 138.242C140.991 137.773 140.342 137.282 139.61 136.762L138.956 136.306Z" fill="#00160A"></path><path fill-rule="evenodd" clip-rule="evenodd" d="M334.642 422.475L335.548 422.48C340.612 422.527 344.568 422.983 352.02 424.179C352.875 424.316 353.456 425.12 353.319 425.975C353.182 426.83 352.378 427.411 351.523 427.274L349.081 426.89C342.915 425.943 339.362 425.61 334.642 425.61C318.264 425.61 307.808 435.862 309.578 451.587C309.675 452.447 309.056 453.222 308.196 453.319C307.336 453.416 306.56 452.797 306.463 451.937C304.473 434.252 316.483 422.475 334.642 422.475ZM347.326 428.803L347.173 428.669C347.026 428.542 346.799 428.56 346.674 428.708C346.545 428.857 346.565 429.08 346.712 429.207L346.87 429.341C347.018 429.468 347.24 429.451 347.369 429.302C347.493 429.154 347.479 428.93 347.326 428.803ZM318.927 432.081C318.365 431.629 317.543 431.719 317.091 432.281C315.267 434.551 313.937 436.763 313.108 438.922C312.301 441.022 312.026 444.551 312.235 449.596L312.286 450.662C312.324 451.382 312.938 451.935 313.658 451.898C314.379 451.86 314.932 451.245 314.894 450.525C314.617 445.254 314.853 441.663 315.546 439.859C316.272 437.97 317.463 435.987 319.127 433.917C319.579 433.355 319.489 432.533 318.927 432.081ZM333.18 427.76C333.821 427.428 334.609 427.679 334.94 428.319C335.272 428.959 335.022 429.748 334.382 430.079C331.729 431.453 329.703 433.757 328.291 437.041C326.776 440.566 325.536 443.711 324.572 446.475C324.334 447.156 323.589 447.515 322.908 447.278C322.227 447.04 321.868 446.296 322.105 445.615C323.091 442.788 324.353 439.587 325.892 436.01C327.533 432.192 329.967 429.425 333.18 427.76ZM340.773 427.691C340.297 427.149 339.472 427.094 338.93 427.57C336.75 429.48 335.075 431.217 333.903 432.792C332.739 434.356 331.376 436.695 329.799 439.825C329.474 440.469 329.733 441.254 330.377 441.579C331.021 441.903 331.806 441.644 332.131 441C333.647 437.994 334.941 435.772 335.998 434.351C337.047 432.942 338.599 431.332 340.651 429.534C341.193 429.059 341.248 428.234 340.773 427.691ZM336.004 442.44C335.462 442.915 334.637 442.861 334.161 442.318C333.686 441.776 333.741 440.951 334.283 440.475C336.335 438.678 337.887 437.068 338.936 435.658C339.993 434.237 341.288 432.016 342.803 429.009C343.128 428.365 343.913 428.106 344.557 428.431C345.201 428.756 345.46 429.541 345.135 430.185C343.558 433.314 342.195 435.653 341.031 437.218C339.859 438.793 338.184 440.53 336.004 442.44ZM326.117 428.825C325.523 428.415 324.71 428.564 324.3 429.157C321.38 433.386 319.516 436.545 318.691 438.691C317.864 440.844 317.292 443.748 316.961 447.417C316.896 448.135 317.425 448.77 318.144 448.835C318.862 448.9 319.497 448.37 319.562 447.652C319.874 444.203 320.402 441.523 321.13 439.627C321.808 437.861 323.39 435.136 325.863 431.498L326.449 430.642C326.859 430.048 326.71 429.235 326.117 428.825Z" fill="#00160A"></path><path fill-rule="evenodd" clip-rule="evenodd" d="M301.324 421.123L302.224 423.123L304.276 423.712C304.387 423.744 304.451 423.86 304.419 423.97C304.409 424.005 304.391 424.036 304.366 424.061L302.807 425.613L302.894 427.846C302.899 427.961 302.809 428.058 302.694 428.063C302.655 428.064 302.616 428.055 302.582 428.035L300.817 427.03C300.762 426.999 300.696 426.994 300.637 427.018L298.75 427.767C298.642 427.81 298.521 427.758 298.478 427.65C298.464 427.614 298.46 427.574 298.467 427.536L298.864 425.337L297.537 423.583C297.467 423.491 297.485 423.36 297.577 423.291C297.605 423.269 297.639 423.255 297.674 423.25L299.787 422.953L300.957 421.098C301.019 421 301.148 420.971 301.245 421.032C301.28 421.054 301.307 421.086 301.324 421.123Z" fill="#00160A"></path><path fill-rule="evenodd" clip-rule="evenodd" d="M373.995 141.137C374.475 141.564 375.075 142.332 375.605 143.164L376.286 142.861L377.092 142.516C377.255 142.442 377.359 142.384 377.391 142.337C377.484 142.164 377.698 142.098 377.873 142.19C378.043 142.282 378.112 142.496 378.019 142.669C377.955 142.833 377.503 143.347 376.662 143.851C376.51 143.942 376.341 144.027 376.161 144.109C376.47 144.689 376.714 145.25 376.828 145.699C377.001 146.361 376.863 146.831 376.636 146.996C376.413 147.159 375.854 147.189 375.003 146.483C374.846 146.363 374.822 146.141 374.94 145.986C375.059 145.831 375.281 145.803 375.438 145.922C375.6 146.042 375.763 146.109 375.895 146.158L375.831 145.905C375.806 145.814 375.775 145.72 375.731 145.627C375.579 145.294 375.385 144.913 375.167 144.521C374.501 144.773 373.744 145.001 372.926 145.111C372.527 145.164 372.121 145.175 371.699 145.171C371.456 145.187 371.246 145.003 371.229 144.76C371.213 144.517 371.398 144.307 371.641 144.291C372.625 144.196 373.535 143.947 374.338 143.668L374.601 143.573C374.166 142.894 373.701 142.277 373.302 141.929C373.086 141.737 373.064 141.404 373.253 141.186C373.447 140.967 373.779 140.946 373.995 141.137Z" fill="#00160A"></path><path fill-rule="evenodd" clip-rule="evenodd" d="M86.3762 317.891C85.0234 317.971 82.8797 318.306 81.1306 318.999C79.6344 319.593 79.7577 336.013 84.8983 337.358C90.0125 339.118 95.5731 336.873 94.8411 328.082C94.8278 327.898 94.6772 327.397 94.5046 326.823C94.2519 325.982 93.9519 324.984 93.9666 324.595C94.0255 323.216 93.659 322.05 92.7095 321.313C91.6759 319.121 89.6721 317.698 86.3762 317.891ZM85.755 333.364C83.2383 331.447 83.2598 322.585 86.1112 322.012C87.899 323.413 89.5364 325.427 90.1126 329.292C89.5162 331.414 88.2325 332.635 87.1102 333.703C86.9901 333.817 86.8719 333.929 86.7566 334.041C86.4324 333.852 86.0983 333.623 85.755 333.364Z" fill="white"></path><path fill-rule="evenodd" clip-rule="evenodd" d="M82.6682 328.166C82.4297 326.782 82.5737 325.236 83.2473 323.589C83.5529 322.843 84.3663 322.239 85.3865 321.837C86.5793 321.367 88.0409 321.14 88.9632 321.085C91.2103 320.954 92.576 321.916 93.28 323.401C93.9272 323.899 94.1767 324.688 94.1361 325.622C94.119 326.066 94.709 327.676 94.7312 327.983C95.2276 333.936 91.4358 335.457 87.9497 334.267C86.6336 334.938 85.3601 335.042 84.3957 334.313C83.5305 333.662 82.8599 332.298 82.6906 329.899C82.6456 329.28 82.6382 328.702 82.6682 328.166ZM88.8102 324.295C86.8299 324.677 86.7905 330.495 88.5316 331.747C88.7692 331.916 89.0004 332.066 89.2248 332.189C90.0562 331.428 90.6758 330.812 91.0204 329.546C91.3651 328.279 90.0469 325.21 88.8102 324.295Z" fill="#221F1F"></path><path fill-rule="evenodd" clip-rule="evenodd" d="M219.784 473.115C219.189 472.706 218.376 472.857 217.968 473.452C217.56 474.047 217.711 474.86 218.306 475.268C218.959 475.716 219.536 476.13 220.045 476.515C219.497 476.952 218.949 477.452 218.379 478.021L217.224 479.194C216.716 479.707 216.72 480.534 217.232 481.041C217.745 481.549 218.571 481.545 219.079 481.033L220.465 479.633C221.029 479.083 221.557 478.624 222.089 478.242C223.27 479.413 223.629 480.271 223.649 481.125L223.649 481.344L223.656 481.477C223.722 482.136 224.279 482.649 224.955 482.649C225.676 482.649 226.261 482.065 226.261 481.344L226.261 481.087C226.236 479.756 225.767 478.491 224.503 477.045C225.338 476.796 226.278 476.657 227.419 476.597C228.14 476.56 228.693 475.945 228.655 475.225C228.618 474.505 228.003 473.951 227.283 473.989C225.302 474.092 223.763 474.423 222.392 475.05C221.819 474.582 221.171 474.091 220.438 473.571L219.784 473.115Z" fill="#00160A"></path><path fill-rule="evenodd" clip-rule="evenodd" d="M219.784 473.115C219.189 472.706 218.376 472.857 217.968 473.452C217.56 474.047 217.711 474.86 218.306 475.268C218.959 475.716 219.536 476.13 220.045 476.515C219.497 476.952 218.949 477.452 218.379 478.021L217.224 479.194C216.716 479.707 216.72 480.534 217.232 481.041C217.745 481.549 218.571 481.545 219.079 481.033L220.465 479.633C221.029 479.083 221.557 478.624 222.089 478.242C223.27 479.413 223.629 480.271 223.649 481.125L223.649 481.344L223.656 481.477C223.722 482.136 224.279 482.649 224.955 482.649C225.676 482.649 226.261 482.065 226.261 481.344L226.261 481.087C226.236 479.756 225.767 478.491 224.503 477.045C225.338 476.796 226.278 476.657 227.419 476.597C228.14 476.56 228.693 475.945 228.655 475.225C228.618 474.505 228.003 473.951 227.283 473.989C225.302 474.092 223.763 474.423 222.392 475.05C221.819 474.582 221.171 474.091 220.438 473.571L219.784 473.115Z" fill="#00160A"></path><path fill-rule="evenodd" clip-rule="evenodd" d="M264.416 437.336L265.316 439.336L267.368 439.925C267.478 439.957 267.543 440.073 267.511 440.183C267.501 440.218 267.483 440.249 267.457 440.274L265.899 441.826L265.986 444.059C265.99 444.174 265.901 444.271 265.785 444.276C265.746 444.277 265.708 444.268 265.674 444.248L263.909 443.243C263.854 443.212 263.788 443.207 263.729 443.231L261.841 443.98C261.734 444.023 261.613 443.971 261.57 443.863C261.556 443.827 261.552 443.787 261.559 443.749L261.956 441.55L260.628 439.796C260.559 439.704 260.577 439.573 260.669 439.504C260.697 439.482 260.731 439.468 260.766 439.463L262.879 439.166L264.049 437.311C264.11 437.213 264.239 437.184 264.337 437.245C264.372 437.267 264.399 437.299 264.416 437.336Z" fill="#00160A"></path><path fill-rule="evenodd" clip-rule="evenodd" d="M151.198 423.595L152.728 425.166L154.857 425.018C154.972 425.01 155.072 425.097 155.08 425.212C155.082 425.247 155.076 425.283 155.061 425.315L154.127 427.306L154.972 429.375C155.016 429.481 154.965 429.603 154.858 429.647C154.822 429.662 154.782 429.666 154.744 429.66L152.742 429.319C152.679 429.308 152.615 429.327 152.568 429.369L151.051 430.719C150.965 430.795 150.833 430.788 150.756 430.701C150.73 430.672 150.713 430.636 150.706 430.598L150.327 428.396L148.48 427.202C148.383 427.139 148.355 427.01 148.418 426.913C148.437 426.883 148.464 426.859 148.495 426.842L150.38 425.839L150.844 423.696C150.868 423.583 150.98 423.512 151.092 423.536C151.133 423.545 151.169 423.565 151.198 423.595Z" fill="#00160A"></path><path fill-rule="evenodd" clip-rule="evenodd" d="M127.311 280.379L128.211 282.379L130.262 282.968C130.373 283 130.437 283.115 130.405 283.226C130.395 283.261 130.377 283.292 130.352 283.317L128.793 284.868L128.881 287.102C128.885 287.217 128.795 287.314 128.68 287.319C128.641 287.32 128.602 287.311 128.568 287.291L126.804 286.286C126.749 286.255 126.682 286.25 126.623 286.274L124.736 287.023C124.629 287.066 124.507 287.013 124.465 286.906C124.45 286.87 124.446 286.83 124.453 286.792L124.85 284.593L123.523 282.839C123.453 282.747 123.471 282.616 123.563 282.547C123.592 282.525 123.625 282.511 123.66 282.506L125.774 282.209L126.943 280.353C127.005 280.256 127.134 280.227 127.232 280.288C127.266 280.31 127.294 280.342 127.311 280.379Z" fill="#00160A"></path><path fill-rule="evenodd" clip-rule="evenodd" d="M127.102 282.371L127.484 283.22L128.355 283.471C128.402 283.484 128.43 283.533 128.416 283.58C128.412 283.595 128.404 283.608 128.393 283.619L127.731 284.278L127.768 285.226C127.77 285.275 127.732 285.317 127.683 285.319C127.667 285.319 127.65 285.315 127.636 285.307L126.886 284.88C126.863 284.867 126.835 284.865 126.81 284.875L126.008 285.193C125.962 285.211 125.911 285.189 125.893 285.143C125.887 285.128 125.885 285.111 125.888 285.095L126.057 284.161L125.493 283.416C125.463 283.377 125.471 283.321 125.51 283.292C125.522 283.283 125.536 283.277 125.551 283.275L126.449 283.148L126.946 282.36C126.972 282.319 127.026 282.306 127.068 282.332C127.083 282.342 127.094 282.355 127.102 282.371Z" fill="#E7EAEE"></path><path fill-rule="evenodd" clip-rule="evenodd" d="M20.3243 368.123L21.2243 370.123L23.2758 370.712C23.3867 370.744 23.4508 370.86 23.419 370.97C23.4092 371.005 23.3908 371.036 23.3655 371.061L21.8069 372.613L21.8942 374.846C21.8987 374.961 21.8089 375.058 21.6936 375.063C21.6545 375.064 21.6159 375.055 21.582 375.035L19.8174 374.03C19.7623 373.999 19.6958 373.994 19.6369 374.018L17.7496 374.767C17.6423 374.81 17.5208 374.758 17.4782 374.65C17.4638 374.614 17.4599 374.574 17.4668 374.536L17.8641 372.337L16.5365 370.583C16.4669 370.491 16.485 370.36 16.577 370.291C16.6054 370.269 16.6387 370.255 16.674 370.25L18.7875 369.953L19.957 368.098C20.0185 368 20.1476 367.971 20.2452 368.032C20.2799 368.054 20.3075 368.086 20.3243 368.123Z" fill="#00160A"></path><path fill-rule="evenodd" clip-rule="evenodd" d="M110.746 188.545L111.4 189.001C112.134 189.522 114.872 192.103 115.445 192.571C116.815 191.943 118.354 191.612 120.335 191.509C121.055 191.471 121.67 192.025 121.707 192.745C121.745 193.465 121.191 194.08 120.471 194.117C119.33 194.177 118.389 194.316 117.554 194.565C118.819 196.012 119.288 197.277 119.312 198.607L119.313 198.863C119.313 199.585 118.728 200.169 118.007 200.169C117.33 200.169 116.774 199.656 116.707 198.997L116.701 198.863L116.701 198.645C116.681 197.791 116.322 196.933 115.141 195.763C114.609 196.144 114.081 196.603 113.517 197.153L112.131 198.553C111.623 199.065 110.796 199.069 110.284 198.561C109.772 198.054 109.768 197.227 110.276 196.714L111.431 195.541C112 194.972 112.548 194.472 113.097 194.035C112.134 191.836 108.522 189.477 108.93 188.882C109.339 188.288 110.152 188.137 110.746 188.545Z" fill="#00160A"></path><path fill-rule="evenodd" clip-rule="evenodd" d="M362.721 339.161L364.5 340.443L366.571 339.928C366.683 339.9 366.797 339.968 366.825 340.08C366.833 340.114 366.833 340.151 366.824 340.185L366.25 342.308L367.442 344.198C367.503 344.296 367.474 344.425 367.377 344.486C367.344 344.507 367.305 344.518 367.266 344.519L365.236 344.531C365.172 344.531 365.112 344.56 365.073 344.61L363.813 346.203C363.742 346.293 363.61 346.309 363.52 346.237C363.489 346.213 363.466 346.181 363.453 346.144L362.697 344.041L360.671 343.186C360.564 343.141 360.515 343.018 360.559 342.912C360.573 342.879 360.595 342.851 360.623 342.829L362.305 341.514L362.39 339.323C362.395 339.207 362.492 339.118 362.607 339.122C362.648 339.124 362.688 339.137 362.721 339.161Z" fill="#00160A"></path><path fill-rule="evenodd" clip-rule="evenodd" d="M383.161 257.311L383.7 259.437L385.618 260.373C385.722 260.424 385.765 260.549 385.714 260.652C385.699 260.684 385.675 260.712 385.646 260.732L383.841 261.99L383.54 264.204C383.524 264.318 383.419 264.398 383.304 264.383C383.266 264.377 383.229 264.361 383.199 264.337L381.636 263.04C381.587 263 381.523 262.984 381.46 262.997L379.472 263.407C379.359 263.431 379.248 263.358 379.225 263.245C379.217 263.207 379.22 263.167 379.233 263.13L380.006 261.033L379.004 259.076C378.951 258.973 378.991 258.847 379.094 258.795C379.126 258.779 379.161 258.771 379.197 258.772L381.33 258.846L382.804 257.222C382.881 257.137 383.013 257.13 383.099 257.208C383.129 257.235 383.151 257.271 383.161 257.311Z" fill="#00160A"></path><path fill-rule="evenodd" clip-rule="evenodd" d="M336.616 171.757L337.155 173.883L339.073 174.819C339.177 174.869 339.22 174.994 339.169 175.098C339.154 175.13 339.13 175.158 339.101 175.178L337.296 176.435L336.995 178.65C336.979 178.764 336.874 178.844 336.759 178.829C336.721 178.823 336.684 178.807 336.654 178.782L335.091 177.486C335.042 177.446 334.978 177.43 334.915 177.442L332.927 177.853C332.814 177.876 332.703 177.804 332.68 177.691C332.672 177.652 332.675 177.613 332.688 177.576L333.461 175.479L332.459 173.522C332.406 173.419 332.447 173.293 332.549 173.241C332.581 173.224 332.616 173.216 332.652 173.218L334.785 173.292L336.259 171.668C336.336 171.582 336.468 171.576 336.554 171.653C336.584 171.681 336.606 171.717 336.616 171.757Z" fill="#00160A"></path><path fill-rule="evenodd" clip-rule="evenodd" d="M474.122 192.586L474.916 192.515C475.812 192.442 476.625 192.401 477.365 192.392C478.01 191.03 478.977 189.788 480.428 188.435C480.956 187.943 481.782 187.972 482.274 188.5C482.766 189.028 482.737 189.854 482.209 190.346C481.373 191.125 480.742 191.837 480.262 192.564C482.161 192.859 483.334 193.527 484.207 194.53L484.373 194.726C484.836 195.279 484.764 196.103 484.212 196.566C483.694 197.001 482.937 196.965 482.463 196.503L482.372 196.405L482.231 196.238C481.668 195.596 480.841 195.17 479.184 195.032C479.022 195.666 478.912 196.358 478.833 197.141L478.672 199.105C478.612 199.824 477.981 200.358 477.262 200.298C476.543 200.239 476.009 199.607 476.069 198.889L476.2 197.248C476.27 196.445 476.368 195.71 476.508 195.023C475.871 195.055 475.162 195.109 474.373 195.186C473.655 195.255 473.017 194.729 472.948 194.011C472.878 193.294 473.404 192.655 474.122 192.586Z" fill="#00160A"></path><path fill-rule="evenodd" clip-rule="evenodd" d="M368.664 282.737C368.428 283.334 367.91 284.161 367.31 284.943L367.828 285.48L368.428 286.119L368.561 286.247C368.619 286.299 368.665 286.33 368.698 286.339C368.892 286.367 369.027 286.546 369.001 286.741C368.973 286.932 368.795 287.07 368.601 287.042C368.425 287.038 367.787 286.789 367.026 286.171C366.888 286.059 366.751 285.93 366.612 285.789C366.173 286.278 365.73 286.699 365.347 286.96C364.783 287.349 364.295 287.38 364.062 287.222C363.833 287.069 363.613 286.554 363.986 285.513C364.044 285.324 364.245 285.225 364.431 285.284C364.617 285.343 364.719 285.541 364.661 285.729C364.604 285.922 364.596 286.099 364.596 286.24L364.812 286.093C364.888 286.038 364.967 285.977 365.039 285.904C365.3 285.647 365.592 285.334 365.885 284.996C365.421 284.456 364.947 283.823 364.565 283.092C364.378 282.735 364.229 282.357 364.088 281.959C363.99 281.737 364.091 281.476 364.314 281.377C364.537 281.279 364.798 281.381 364.895 281.603C365.321 282.496 365.866 283.266 366.403 283.925L366.582 284.14C367.072 283.499 367.493 282.851 367.683 282.357C367.789 282.088 368.094 281.954 368.364 282.057C368.636 282.164 368.77 282.468 368.664 282.737Z" fill="#E7EAEE"></path><path fill-rule="evenodd" clip-rule="evenodd" d="M355.913 16.5761C356.708 16.4375 357.466 16.9703 357.605 17.7661C357.743 18.562 357.21 19.3195 356.415 19.4581C352.629 20.1174 348.074 22.3799 344.139 26.024C339.028 30.7559 335.259 37.4344 333.398 46.1521C331.898 53.1757 333.276 62.4232 337.195 70.1383C341.654 78.9159 348.822 84.8838 358.019 86.5637C367.46 88.2882 375.448 87.2172 384.37 84.0455L385.191 83.7472C385.446 83.6505 385.898 83.4762 386.465 83.2574L386.482 83.2508L386.501 83.2438L386.501 83.2437L386.501 83.2435C388.65 82.4146 392.404 80.9661 393.482 80.6402C396.366 79.7679 398.334 79.8409 399.761 81.3613C400.313 81.9503 400.284 82.876 399.695 83.4288C399.143 83.947 398.295 83.9536 397.735 83.467L397.627 83.3631C397.206 82.9146 396.336 82.8626 394.585 83.3648L394.329 83.4403C393.379 83.7277 389.902 85.0684 387.734 85.9042C386.894 86.228 386.251 86.4761 386.027 86.5577C376.391 90.0752 367.744 91.3138 357.493 89.4414C347.335 87.586 339.436 81.0098 334.587 71.4632C330.373 63.1665 328.893 53.2392 330.537 45.5414C332.523 36.2372 336.596 29.0213 342.151 23.8775C346.499 19.851 351.57 17.3325 355.913 16.5761ZM365.805 23.6425C366.598 23.4872 367.366 24.004 367.521 24.7967C367.677 25.5895 367.16 26.358 366.367 26.5133C354.512 28.835 344.978 37.8899 342.213 49.8669C341.277 53.9204 341.56 57.2163 342.479 58.4738L342.601 58.6314L342.61 58.6534L342.627 58.6401C342.956 58.3434 343.341 57.5853 343.639 56.41L343.701 56.1518C346.545 43.8337 355.936 34.2986 367.932 31.0965C368.712 30.8882 369.514 31.352 369.722 32.1325C369.931 32.913 369.467 33.7146 368.686 33.9229C357.879 36.8079 349.388 45.3163 346.663 56.3425L346.552 56.8098C345.549 61.1543 342.669 63.2282 340.336 60.4781C338.63 58.4667 338.211 54.1986 339.363 49.2089C342.39 36.0973 352.827 26.184 365.805 23.6425ZM383.397 39.6971C383.339 38.8913 382.639 38.2847 381.834 38.3422C367.598 39.3579 355.113 48.6043 350.145 62.2516C348.261 67.4301 348.148 72.0354 349.692 74.3839C351.762 77.5342 355.018 75.7472 356.641 71.2867L356.811 70.829C361.204 59.2794 371.498 51.2129 383.548 49.5308C384.348 49.4191 384.906 48.68 384.795 47.88C384.683 47.0799 383.944 46.5218 383.144 46.6335C369.873 48.486 358.559 57.4648 353.892 70.2862L353.789 70.5601C353.27 71.8946 352.702 72.6991 352.272 72.9352L352.252 72.9481C352.249 72.9507 352.247 72.9529 352.245 72.9548C352.242 72.9572 352.24 72.9588 352.239 72.9593C352.239 72.9594 352.238 72.9595 352.238 72.9594C352.236 72.9591 352.234 72.955 352.23 72.9453C352.221 72.9237 352.2 72.8744 352.136 72.7775L352.059 72.6502C351.21 71.1451 351.34 67.5242 352.894 63.2521C357.463 50.699 368.947 42.1944 382.042 41.2602C382.848 41.2027 383.454 40.5029 383.397 39.6971ZM389.767 53.9165C390.573 53.859 391.273 54.4656 391.33 55.2714C391.388 56.0771 390.781 56.7769 389.975 56.8344C380.794 57.4895 372.743 63.4521 369.539 72.2534C368.59 74.8624 368.413 77.093 368.753 78.2227L368.795 78.3488L368.86 78.2555C369.023 78.0078 369.207 77.652 369.387 77.1906L369.464 76.9864C372.848 67.6899 381.052 61.1793 390.674 59.8361C391.474 59.7245 392.213 60.2825 392.325 61.0826C392.437 61.8826 391.878 62.6217 391.078 62.7334C382.661 63.9084 375.466 69.5262 372.367 77.5756L372.213 77.9869C370.958 81.4344 368.245 82.9237 366.51 80.2839C365.322 78.475 365.405 75.0601 366.79 71.2529C370.392 61.3574 379.445 54.6529 389.767 53.9165ZM397.476 65.7015C397.419 64.8957 396.719 64.2891 395.913 64.3466C389 64.8398 382.937 69.33 380.525 75.957C379.574 78.5697 379.517 80.9475 380.396 82.2864C381.839 84.4815 384.08 83.2515 385.013 80.6866L385.14 80.3497C387.105 75.3313 391.608 71.8324 396.873 71.0975C397.673 70.9859 398.231 70.2468 398.119 69.4467C398.008 68.6466 397.269 68.0886 396.469 68.2003L396.098 68.256C390.431 69.1689 385.541 72.7661 383.005 77.9432L382.917 78.1275L382.971 77.9176C383.053 77.6121 383.153 77.2906 383.274 76.9576C385.288 71.4247 390.349 67.6764 396.121 67.2646C396.927 67.2071 397.534 66.5073 397.476 65.7015Z" fill="#00160A"></path><path fill-rule="evenodd" clip-rule="evenodd" d="M389.767 53.9165C390.573 53.859 391.273 54.4656 391.33 55.2714C391.388 56.0771 390.781 56.7769 389.975 56.8344C380.794 57.4895 372.743 63.4521 369.539 72.2534C368.59 74.8624 368.413 77.093 368.753 78.2227L368.795 78.3488L368.86 78.2555C369.023 78.0078 369.207 77.652 369.387 77.1906L369.464 76.9864C372.848 67.6899 381.052 61.1793 390.674 59.8361C391.474 59.7245 392.213 60.2825 392.325 61.0826C392.437 61.8826 391.879 62.6217 391.078 62.7334C382.661 63.9084 375.466 69.5262 372.367 77.5756L372.213 77.9869C370.958 81.4344 368.245 82.9237 366.51 80.2839C365.322 78.475 365.405 75.0601 366.791 71.2529C370.392 61.3574 379.445 54.6529 389.767 53.9165Z" fill="#00160A"></path><path d="M298.672 244.355C329.337 230.012 354.976 222.435 370.938 221.044C375.826 220.618 378.043 223.313 376.805 227.697C375.886 230.951 373.087 235.418 368.796 240.708C361.317 249.928 351.455 257.819 341.634 265.158C357.346 250.656 361.353 244.59 366.199 238.616L366.96 237.666C370.553 233.123 372.875 229.328 373.59 226.795L373.692 226.411C374.137 224.583 373.621 224.15 371.229 224.359C355.628 225.718 330.087 233.31 299.535 247.634C268.933 261.981 268.057 258.675 298.672 244.355Z" fill="white"></path><path d="M158.427 197.955L158.652 198.488C160.205 202.172 161.819 205.82 163.652 209.798L164.364 211.342C164.131 211.499 163.823 211.665 163.486 211.813C163.001 212.024 162.509 212.173 162.138 212.223L162.02 212.235L161.842 212.021C160.458 210.317 158.851 207.42 157.689 204.54C157.071 203.006 156.63 201.599 156.432 200.518C156.351 200.077 156.313 199.707 156.317 199.426L156.325 199.241C156.328 199.197 156.328 199.173 156.317 199.17L156.361 199.14C156.608 198.97 157.24 198.6 158.178 198.09L158.427 197.955Z" fill="white"></path><path fill-rule="evenodd" clip-rule="evenodd" d="M197.191 184.611C198.151 183.436 199.396 183.611 200.972 184.568L201.377 184.823L202.51 185.574C202.827 185.777 202.965 185.848 203.149 185.921C203.578 186.092 203.788 186.578 203.617 187.007C203.446 187.436 202.96 187.645 202.531 187.474L202.378 187.411C202.089 187.287 201.87 187.158 201.282 186.769L200.469 186.227C200.335 186.139 200.219 186.066 200.105 185.997C199.162 185.425 198.734 185.365 198.486 185.669C198.329 185.86 198.368 186.269 198.679 187.106L199.02 187.985C199.698 189.784 199.702 190.589 198.494 191.276C197.455 191.867 196.921 191.591 195.428 190.128L195.066 189.769C194.11 188.814 193.609 188.482 193.286 188.55C193.179 188.573 193.054 188.649 192.901 188.811C192.722 189.002 192.671 189.613 192.781 190.696L192.949 192.111C193.146 193.84 193.067 194.288 192.353 194.766C191.37 195.424 190.061 194.681 187.637 192.503C187.293 192.195 187.265 191.666 187.573 191.323C187.882 190.979 188.41 190.951 188.754 191.259C189.79 192.19 190.573 192.796 191.12 193.107L191.242 193.174L191.344 193.225L191.347 193.12L191.34 192.87C191.329 192.665 191.304 192.417 191.253 191.996L191.146 191.127C190.943 189.367 191.006 188.388 191.682 187.668C192.057 187.268 192.478 187.012 192.94 186.914C194.014 186.687 194.776 187.146 196.043 188.384L196.682 189.013C197.372 189.676 197.627 189.845 197.668 189.822C197.824 189.733 197.8 189.457 197.377 188.369L197.192 187.898C196.601 186.381 196.488 185.472 197.191 184.611Z" fill="#00160A"></path><path fill-rule="evenodd" clip-rule="evenodd" d="M288.438 48.5669L287.645 48.6377C286.927 48.7072 286.401 49.3455 286.47 50.0634C286.512 50.4974 286.762 50.8612 287.112 51.0657L286.974 51.1638C286.385 51.5801 286.245 52.395 286.661 52.984C287.078 53.573 287.893 53.713 288.482 53.2967L289.824 52.3463C289.785 52.6537 289.751 52.971 289.722 53.2996L289.592 54.9406C289.532 55.6594 290.066 56.2905 290.785 56.3501C291.504 56.4098 292.135 55.8755 292.195 55.1567L292.356 53.193C292.398 52.7728 292.449 52.3789 292.513 52.0061C292.971 52.8761 293.063 53.5463 292.966 54.1802L292.928 54.3958L292.911 54.5284C292.863 55.1886 293.321 55.7913 293.987 55.9087C294.698 56.0339 295.375 55.5596 295.5 54.8493L295.545 54.5964C295.684 53.7151 295.62 52.8278 295.263 51.8429C295.45 51.9771 295.61 52.1263 295.754 52.2895L295.895 52.4572L295.986 52.5551C296.46 53.0166 297.216 53.0528 297.734 52.6181C298.287 52.1545 298.359 51.3307 297.895 50.7782L297.73 50.5816C297.672 50.5143 297.612 50.4484 297.55 50.3841C298.232 50.4239 298.836 49.9272 298.921 49.2396C299.009 48.5238 298.5 47.8721 297.784 47.7841C296.553 47.6327 295.476 47.5986 294.486 47.6875C294.841 47.2694 295.253 46.8447 295.732 46.3978C296.26 45.906 296.289 45.0796 295.797 44.552C295.305 44.0244 294.479 43.9954 293.951 44.4872C293.066 45.3123 292.361 46.0963 291.799 46.8914C291.582 46.6613 291.354 46.4255 291.115 46.1835L290.551 45.6208C290.036 45.1155 289.209 45.1231 288.704 45.6378C288.199 46.1525 288.206 46.9793 288.721 47.4846C289.078 47.8355 289.408 48.1675 289.712 48.4821C289.307 48.5025 288.883 48.5308 288.438 48.5669Z" fill="#00160A"></path><path fill-rule="evenodd" clip-rule="evenodd" d="M238.179 57.5986C237.876 57.2794 237.376 57.2972 237.062 57.6383C236.749 57.9794 236.739 58.5146 237.042 58.8338C237.325 59.1319 237.578 59.4088 237.804 59.6668C237.301 59.8928 236.795 60.183 236.253 60.5397L235.43 61.0901C235.068 61.3302 234.982 61.7993 235.237 62.138C235.492 62.4767 235.991 62.5566 236.353 62.3166L237.339 61.66C237.855 61.3301 238.32 61.0793 238.785 60.9009C239.461 61.8799 239.595 62.5127 239.496 63.1033L239.47 63.2435L239.457 63.3296C239.417 63.7578 239.684 64.1409 240.085 64.2066C240.512 64.2767 240.929 63.9591 241.017 63.4972L241.048 63.3328C241.195 62.4754 241.069 61.6164 240.491 60.5625C240.904 60.5477 241.353 60.571 241.863 60.6293C242.302 60.6794 242.702 60.386 242.757 59.9739C242.811 59.5618 242.5 59.1871 242.061 59.137C241.091 59.0262 240.278 59.0267 239.531 59.1451C239.239 58.7741 238.901 58.3788 238.511 57.9542L238.179 57.5986Z" fill="#E7EAEE"></path><path fill-rule="evenodd" clip-rule="evenodd" d="M69.8087 275.336L70.7086 277.336L72.7601 277.925C72.8711 277.957 72.9352 278.072 72.9033 278.183C72.8935 278.218 72.8751 278.249 72.8499 278.274L71.2912 279.826L71.3786 282.059C71.3831 282.174 71.2932 282.271 71.1779 282.276C71.1389 282.277 71.1003 282.268 71.0664 282.248L69.3018 281.243C69.2466 281.212 69.1802 281.207 69.1212 281.231L67.234 281.98C67.1267 282.023 67.0052 281.971 66.9626 281.863C66.9482 281.827 66.9443 281.787 66.9512 281.749L67.3484 279.55L66.0209 277.796C65.9512 277.704 65.9693 277.573 66.0614 277.504C66.0897 277.482 66.1231 277.468 66.1583 277.463L68.2718 277.166L69.4414 275.311C69.5029 275.213 69.6319 275.184 69.7296 275.245C69.7643 275.267 69.7918 275.299 69.8087 275.336Z" fill="#00160A"></path><path fill-rule="evenodd" clip-rule="evenodd" d="M81.8087 164.336L82.7086 166.336L84.7601 166.925C84.8711 166.957 84.9352 167.072 84.9033 167.183C84.8935 167.218 84.8751 167.249 84.8499 167.274L83.2912 168.826L83.3786 171.059C83.3831 171.174 83.2932 171.271 83.1779 171.276C83.1389 171.277 83.1003 171.268 83.0664 171.248L81.3018 170.243C81.2466 170.212 81.1802 170.207 81.1212 170.231L79.234 170.98C79.1267 171.023 79.0052 170.971 78.9626 170.863C78.9482 170.827 78.9443 170.787 78.9512 170.749L79.3484 168.55L78.0209 166.796C77.9512 166.704 77.9693 166.573 78.0614 166.504C78.0897 166.482 78.1231 166.468 78.1583 166.463L80.2718 166.166L81.4414 164.311C81.5029 164.213 81.6319 164.184 81.7296 164.245C81.7643 164.267 81.7918 164.299 81.8087 164.336Z" fill="#00160A"></path><path d="M108.991 341.061C109.661 340.574 110.599 340.723 111.086 341.393C111.572 342.064 90.3511 359.349 82.1188 367.27L81.162 368.198C76.4599 372.799 72.993 376.783 71.0388 379.932C68.9681 383.27 68.8353 385.082 70.1722 385.823C75.2443 388.634 82.537 390.004 92.9815 388.274L94.0548 388.091C98.0305 387.394 127.937 380.872 127.463 381.045L127.28 381.1C126.337 381.35 114.159 385.561 109.956 386.631L109.448 386.76C103.023 388.376 97.995 389.484 93.4718 390.233C82.4191 392.064 74.5224 391.664 68.718 388.447C65.3685 386.591 65.6352 382.951 68.4897 378.351C70.7347 374.732 74.6837 370.261 80.0387 365.108C88.3812 357.081 100.115 347.506 108.991 341.061Z" fill="white"></path></svg>