<svg xmlns="http://www.w3.org/2000/svg" width="1440" height="49" viewBox="0 0 1440 49" fill="none"><g clip-path="url(#clip0_329_338)"><rect x="383" y="0.477051" width="13.8636" height="13.8636" fill="white"></rect><rect x="410.727" y="21.2725" width="43.1314" height="13.8636" fill="#FD5504"></rect><rect x="383" y="35.1365" width="43.1314" height="13.8636" fill="white"></rect><rect x="211" y="0.477051" width="13.8636" height="13.8636" fill="white"></rect><rect x="238.727" y="21.2725" width="43.1314" height="13.8636" fill="#FD5504"></rect><rect x="211" y="35.1365" width="43.1314" height="13.8636" fill="white"></rect><rect x="39" y="0.477051" width="13.8636" height="13.8636" fill="white"></rect><rect x="66.7271" y="21.2725" width="43.1314" height="13.8636" fill="#FD5504"></rect><rect x="39" y="35.1365" width="43.1314" height="13.8636" fill="white"></rect><rect x="555.525" y="0.477051" width="13.8636" height="13.8636" fill="#FD5504"></rect><rect x="583.253" y="21.2725" width="43.1314" height="13.8636" fill="white"></rect><rect x="555.525" y="35.1365" width="43.1314" height="13.8636" fill="white"></rect><rect x="728.051" y="0.477051" width="13.8636" height="13.8636" fill="white"></rect><rect x="755.778" y="21.2725" width="43.1314" height="13.8636" fill="white"></rect><rect x="728.051" y="35.1365" width="43.1314" height="13.8636" fill="white"></rect><rect x="900.576" y="0.477051" width="13.8636" height="13.8636" fill="white"></rect><rect x="928.304" y="21.2725" width="43.1314" height="13.8636" fill="white"></rect><rect x="900.576" y="35.1365" width="43.1314" height="13.8636" fill="white"></rect><rect x="1073.1" y="0.477051" width="13.8636" height="13.8636" fill="white"></rect><rect x="1100.83" y="21.2725" width="43.1314" height="13.8636" fill="white"></rect><rect x="1073.1" y="35.1365" width="43.1314" height="13.8636" fill="white"></rect><rect x="1245.63" y="0.477051" width="13.8636" height="13.8636" fill="white"></rect><rect x="1273.35" y="21.2725" width="43.1314" height="13.8636" fill="white"></rect><rect x="1245.63" y="35.1365" width="43.1314" height="13.8636" fill="white"></rect><rect width="13.8636" height="13.8636" transform="matrix(-1 0 0 1 537.041 0.477051)" fill="white"></rect><rect width="43.1314" height="13.8636" transform="matrix(-1 0 0 1 509.313 21.2725)" fill="white"></rect><rect width="43.1314" height="13.8636" transform="matrix(-1 0 0 1 537.041 35.1365)" fill="white"></rect><rect width="13.8636" height="13.8636" transform="matrix(-1 0 0 1 365.041 0.477051)" fill="white"></rect><rect width="43.1314" height="13.8636" transform="matrix(-1 0 0 1 337.313 21.2725)" fill="white"></rect><rect width="43.1314" height="13.8636" transform="matrix(-1 0 0 1 365.041 35.1365)" fill="white"></rect><rect width="13.8636" height="13.8636" transform="matrix(-1 0 0 1 193.041 0.477051)" fill="white"></rect><rect width="43.1314" height="13.8636" transform="matrix(-1 0 0 1 165.313 21.2725)" fill="white"></rect><rect width="43.1314" height="13.8636" transform="matrix(-1 0 0 1 193.041 35.1365)" fill="white"></rect><rect width="13.8636" height="13.8636" transform="matrix(-1 0 0 1 709.566 0.477051)" fill="white"></rect><rect width="43.1314" height="13.8636" transform="matrix(-1 0 0 1 681.838 21.2725)" fill="white"></rect><rect width="43.1314" height="13.8636" transform="matrix(-1 0 0 1 709.566 35.1365)" fill="#FD5504"></rect><rect width="13.8636" height="13.8636" transform="matrix(-1 0 0 1 882.091 0.477051)" fill="#FD5504"></rect><rect width="43.1314" height="13.8636" transform="matrix(-1 0 0 1 854.364 21.2725)" fill="white"></rect><rect width="43.1314" height="13.8636" transform="matrix(-1 0 0 1 882.091 35.1365)" fill="white"></rect><rect width="13.8636" height="13.8636" transform="matrix(-1 0 0 1 1054.62 0.477051)" fill="white"></rect><rect width="43.1314" height="13.8636" transform="matrix(-1 0 0 1 1026.89 21.2725)" fill="#FD5504"></rect><rect width="43.1314" height="13.8636" transform="matrix(-1 0 0 1 1054.62 35.1365)" fill="white"></rect><rect width="13.8636" height="13.8636" transform="matrix(-1 0 0 1 1227.14 0.477051)" fill="white"></rect><rect width="43.1314" height="13.8636" transform="matrix(-1 0 0 1 1199.42 21.2725)" fill="white"></rect><rect width="43.1314" height="13.8636" transform="matrix(-1 0 0 1 1227.14 35.1365)" fill="#FD5504"></rect><rect width="13.8636" height="13.8636" transform="matrix(-1 0 0 1 1399.67 0.477051)" fill="#FD5504"></rect><rect width="43.1314" height="13.8636" transform="matrix(-1 0 0 1 1371.94 21.2725)" fill="white"></rect><rect width="43.1314" height="13.8636" transform="matrix(-1 0 0 1 1399.67 35.1365)" fill="white"></rect></g><defs><clipPath id="clip0_329_338"><rect width="1440" height="49" fill="white"></rect></clipPath></defs></svg>