<svg xmlns="http://www.w3.org/2000/svg" width="24" height="24" viewBox="0 0 24 24" fill="none"><path d="M15 11L16 17" stroke="white" strokeWidth="1.5" strokeLinecap="round"></path><path d="M9 11L8 17" stroke="white" strokeWidth="1.5" strokeLinecap="round"></path><path d="M9 6V5C9 3.34315 10.3431 2 12 2C13.6569 2 15 3.34315 15 5V6" stroke="white" strokeWidth="1.5" strokeLinecap="round"></path><path d="M20.2232 12.5257C19.638 9.40452 19.3454 7.84393 18.2345 6.92196C17.1236 6 15.5358 6 12.3602 6H11.6391C8.4635 6 6.87571 6 5.76481 6.92196C4.65392 7.84393 4.3613 9.40452 3.77608 12.5257C2.95316 16.9146 2.5417 19.1091 3.74132 20.5545C4.94094 22 7.17365 22 11.6391 22H12.3602C16.8257 22 19.0584 22 20.258 20.5545C20.954 19.7159 21.1077 18.6252 20.9533 17" stroke="white" strokeWidth="1.5" strokeLinecap="round"></path></svg>